<svg xmlns="http://www.w3.org/2000/svg" class="logo" viewBox="0 0 71 72"><defs><linearGradient id="a" x1="0%" x2="100%" y1="0%" y2="0%"><stop offset="0%" stop-color="#2D388A"/><stop offset="100%" stop-color="#00AEEF"/></linearGradient><linearGradient id="b" x1="0%" x2="100%" y1="0%" y2="0%"><stop offset="0%" stop-color="#2D388A"/><stop offset="100%" stop-color="#00AEEF"/></linearGradient></defs><g fill="none"><path fill="url(#a)" d="m.245 35.245 7.888 7.943L43.135 7.945 35.245.002l-35 35.243Zm7.888 6.381-6.336-6.381L35.245 1.564l6.337 6.381-33.45 33.681Z" transform="translate(.195 .887)"/><path fill="url(#b)" d="m13.8 48.895 7.89 7.941 35-35.242-7.89-7.943-35 35.244Zm7.89 6.38-6.337-6.38 33.445-33.683 6.338 6.382-33.445 33.68Z" transform="translate(.195 .887)"/><path fill="url(#a)" d="m70.245 35.245-7.889-7.942-35.002 35.243 7.89 7.943 35-35.244Zm-7.889-6.382 6.336 6.382-33.447 33.682-6.338-6.381 33.45-33.683Z" transform="translate(.195 .887)"/></g></svg>